<svg xmlns="http://www.w3.org/2000/svg" xmlns:svg="http://www.w3.org/2000/svg" id="svg2" width="738.991" height="392.505" version="1.1"><metadata id="metadata7"/><g id="layer1" transform="translate(6.8705709,12.370571)"><rect style="fill:#fea;fill-opacity:1;stroke:#000;stroke-width:3.07408524;stroke-miterlimit:4;stroke-opacity:1;stroke-dasharray:none" id="rect2987" width="136.5" height="77.143" x="186.571" y="59.505" ry="17.143"/><g id="g3951" transform="translate(0,-380)"><path id="rect2993" d="m 29.807988,404.31302 78.763442,0 18.76344,18.76345 0,128.76344 -97.526882,0 z" style="fill:#fff;fill-opacity:1;stroke:#000;stroke-width:2.47311282;stroke-miterlimit:4;stroke-opacity:1"/><text id="text2996" x="-541.261" y="89.071" transform="matrix(0,-1,1,0,0,0)" xml:space="preserve" style="font-size:28px;font-style:normal;font-variant:normal;font-weight:400;font-stretch:normal;text-align:start;line-height:125%;letter-spacing:0;word-spacing:0;writing-mode:lr-tb;text-anchor:start;fill:#000;fill-opacity:1;stroke:none;font-family:Droid Sans;-inkscape-font-specification:Droid Sans"><tspan id="tspan2998" x="-541.261" y="89.071">Notebook</tspan></text></g><text style="font-size:20px;font-style:normal;font-variant:normal;font-weight:400;font-stretch:normal;text-align:start;line-height:125%;letter-spacing:0;word-spacing:0;writing-mode:lr-tb;text-anchor:start;fill:#000;fill-opacity:1;stroke:none;font-family:Droid Sans;-inkscape-font-specification:Droid Sans" id="text3771" x="190.3" y="102.813" xml:space="preserve"><tspan id="tspan3773" x="190.3" y="102.813">Preprocessors</tspan></text><path style="fill:#fff;fill-opacity:1;stroke:#000;stroke-width:1.33420539;stroke-miterlimit:4;stroke-opacity:1" id="rect3768" d="m 127.2381,90.36977 43.55684,0 0,-7.7067 13.61068,15.4134 -13.61068,15.41339 0,-7.7067 -43.55684,0 z"/><rect style="fill:#fea;fill-opacity:1;stroke:#000;stroke-width:3.07408524;stroke-miterlimit:4;stroke-opacity:1;stroke-dasharray:none" id="rect2987-2" width="136.5" height="77.143" x="382.362" y="59.505" ry="17.143"/><text style="font-size:20px;font-style:normal;font-variant:normal;font-weight:400;font-stretch:normal;text-align:start;line-height:125%;letter-spacing:0;word-spacing:0;writing-mode:lr-tb;text-anchor:start;fill:#000;fill-opacity:1;stroke:none;font-family:Droid Sans;-inkscape-font-specification:Droid Sans" id="text3771-7" x="411.203" y="102.813" xml:space="preserve"><tspan id="tspan3773-0" x="411.203" y="102.813">Exporter</tspan></text><path style="fill:none;stroke:#000;stroke-width:1.33420539;stroke-miterlimit:4;stroke-opacity:1" id="rect3768-2" d="m 322.9901,90.36977 43.55684,0 0,-7.7067 13.61068,15.4134 -13.61068,15.41339 0,-7.7067 -43.55684,0 z"/><path style="fill:#fff;fill-opacity:1;stroke:#000;stroke-width:1.33420539;stroke-miterlimit:4;stroke-opacity:1" id="rect3768-2-9" d="m 499.2791,261.98048 43.55684,0 0,-7.7067 13.61068,15.4134 -13.61068,15.41339 0,-7.7067 -43.55684,0 z"/><path style="fill:#fff;fill-opacity:1;stroke:#000;stroke-width:1.33420539;stroke-miterlimit:4;stroke-opacity:1" id="rect3768-2-6" d="m 458.31874,136.85255 0,43.55684 7.7067,0 -15.4134,13.61069 -15.41339,-13.61069 7.70669,0 0,-43.55684 z"/><g id="g3882" transform="translate(-25.169808,-387.70536)"><path id="rect2993-4" d="m 427.01841,583.62909 78.76344,0 18.76344,18.76345 0,128.76345 -97.52688,0 z" style="fill:#fff;fill-opacity:1;stroke:#000;stroke-width:2.47311282;stroke-miterlimit:4;stroke-opacity:1"/><text id="text3876" x="-657.846" y="467.782" transform="matrix(0,-1,1,0,0,0)" xml:space="preserve" style="font-size:32px;font-style:normal;font-variant:normal;font-weight:400;font-stretch:normal;text-align:center;line-height:125%;letter-spacing:0;word-spacing:0;writing-mode:lr-tb;text-anchor:middle;fill:#000;fill-opacity:1;stroke:none;font-family:Droid Sans;-inkscape-font-specification:Droid Sans"><tspan id="tspan3878" x="-657.846" y="467.782" style="font-size:28px">Exported</tspan><tspan id="tspan3880" x="-657.846" y="502.782" style="font-size:28px">file</tspan></text></g><rect style="fill:#fea;fill-opacity:1;stroke:#000;stroke-width:3.07408524;stroke-miterlimit:4;stroke-opacity:1;stroke-dasharray:none" id="rect2987-1" width="136.5" height="77.143" x="558.651" y="231.116" ry="17.143"/><text style="font-size:19px;font-style:normal;font-variant:normal;font-weight:400;font-stretch:normal;text-align:start;line-height:125%;letter-spacing:0;word-spacing:0;writing-mode:lr-tb;text-anchor:start;fill:#000;fill-opacity:1;stroke:none;font-family:Droid Sans;-inkscape-font-specification:Droid Sans" id="text3771-0" x="561.468" y="274.423" xml:space="preserve"><tspan id="tspan3773-5" x="561.468" y="274.423">Postprocessors</tspan></text></g></svg>